<svg width="50" height="50" viewBox="0 0 50 50" fill="none" xmlns="http://www.w3.org/2000/svg">
<path fill-rule="evenodd" clip-rule="evenodd" d="M23.5594 46.3781L23.5687 46.3875L23.575 46.3938C23.9851 46.7045 24.4855 46.8727 25 46.8727C25.5145 46.8727 26.0149 46.7045 26.425 46.3938L26.4313 46.3875L26.4406 46.3781L26.4781 46.35C26.6793 46.1947 26.8772 46.0353 27.0719 45.8719C29.4018 43.9077 31.5424 41.7294 33.4656 39.3656C36.9062 35.1094 40.625 28.9219 40.625 21.875C40.625 17.731 38.9788 13.7567 36.0485 10.8265C33.1183 7.8962 29.144 6.25 25 6.25C20.856 6.25 16.8817 7.8962 13.9515 10.8265C11.0212 13.7567 9.375 17.731 9.375 21.875C9.375 28.9219 13.0937 35.1094 16.5375 39.3656C18.4607 41.7294 20.6013 43.9077 22.9312 45.8719L23.5219 46.35L23.5594 46.3781ZM25 26.5625C25.6156 26.5625 26.2251 26.4413 26.7938 26.2057C27.3625 25.9701 27.8793 25.6248 28.3146 25.1896C28.7498 24.7543 29.0951 24.2375 29.3307 23.6688C29.5663 23.1001 29.6875 22.4906 29.6875 21.875C29.6875 21.2594 29.5663 20.6499 29.3307 20.0812C29.0951 19.5125 28.7498 18.9957 28.3146 18.5604C27.8793 18.1252 27.3625 17.7799 26.7938 17.5443C26.2251 17.3087 25.6156 17.1875 25 17.1875C23.7568 17.1875 22.5645 17.6814 21.6854 18.5604C20.8064 19.4395 20.3125 20.6318 20.3125 21.875C20.3125 23.1182 20.8064 24.3105 21.6854 25.1896C22.5645 26.0686 23.7568 26.5625 25 26.5625Z" fill="#3CB371"/>
</svg>
